<svg xmlns="http://www.w3.org/2000/svg" viewBox="4422.8 1535 20 20">
  <defs>
    <style>
      .cls-1, .cls-2 {
        fill: #fff;
      }

      .cls-2 {
        fill-rule: evenodd;
      }
    </style>
  </defs>
  <g id="Group_3633" data-name="Group 3633" transform="translate(2054 1685)">
    <path id="Path_4017" data-name="Path 4017" class="cls-1" d="M513.8,0a10,10,0,0,1,7.071,17.071A10,10,0,1,1,506.729,2.929,9.9,9.9,0,0,1,513.8,0ZM520.3,3.475a9.218,9.218,0,1,0,2.727,6.545A9.305,9.305,0,0,0,520.3,3.475Z" transform="translate(1865 -150)"/>
    <path id="Path_4020" data-name="Path 4020" class="cls-2" d="M530.9,31.806V36.23H533V30.21h-2.1Zm8.99.242a1.892,1.892,0,0,0-2.2-1.859A1.833,1.833,0,0,0,535.93,31h-.02V30.19h-1.677v6.02h1.758V33.24c0-.788.162-1.535,1.111-1.535.97,0,1.051.889,1.051,1.6V36.23h1.8V32.917c-.02-.3-.04-.606-.061-.869ZM531.95,27.2A1.051,1.051,0,1,0,533,28.251,1.031,1.031,0,0,0,531.95,27.2Z" transform="translate(1843.375 -171.705)"/>
  </g>
</svg>
