<svg xmlns="http://www.w3.org/2000/svg" viewBox="4452.8 1535.1 20 20">
  <defs>
    <style>
      .cls-1, .cls-2 {
        fill: #fff;
      }

      .cls-2 {
        fill-rule: evenodd;
      }
    </style>
  </defs>
  <g id="Group_3634" data-name="Group 3634" transform="translate(2036 1685)">
    <path id="Path_4019" data-name="Path 4019" class="cls-1" d="M387.8,369.1a10,10,0,1,1-7.071,2.929A9.937,9.937,0,0,1,387.8,369.1Zm6.525,3.495a9.218,9.218,0,1,0,2.707,6.525,9.191,9.191,0,0,0-2.707-6.525Z" transform="translate(2039 -519)"/>
    <path id="Path_4022" data-name="Path 4022" class="cls-2" d="M402.693,406h1.636a.885.885,0,0,1,.99.848c0,.364-.283.788-.646.788h-1.98Zm5.273-3.273h2.95v.99h-2.95ZM410.511,406h-2.162a1.05,1.05,0,0,1,1.091-.97,1.074,1.074,0,0,1,1.071.97Zm-2.222.667h3.616V406.5a2.465,2.465,0,1,0-2.465,2.465,2.244,2.244,0,0,0,2.4-1.98h-1.333a1.076,1.076,0,0,1-1.071.99,1.274,1.274,0,0,1-1.152-1.313Zm-1.636.323a1.641,1.641,0,0,0-1.111-1.535,1.682,1.682,0,0,0,.788-1.414,1.63,1.63,0,0,0-1.636-1.636H401.4v6.566h3.293a1.992,1.992,0,0,0,1.96-1.98Zm-2.323-1.96h-1.636v-1.333h1.636a.667.667,0,0,1,0,1.333Z" transform="translate(2020.168 -545.573)"/>
  </g>
</svg>
